<svg xmlns="http://www.w3.org/2000/svg" xmlns:xlink="http://www.w3.org/1999/xlink" width="500" zoomAndPan="magnify" viewBox="0 0 375 374.999991" height="500" preserveAspectRatio="xMidYMid meet" version="1.0"><defs><g/><clipPath id="f942051c38"><path d="M 36.628906 18.75 L 235.375 18.75 L 235.375 264 L 36.628906 264 Z M 36.628906 18.75 " clip-rule="nonzero"/></clipPath><clipPath id="2a9fa5519b"><path d="M 136.058594 166 L 168 166 L 168 213.15625 L 136.058594 213.15625 Z M 136.058594 166 " clip-rule="nonzero"/></clipPath><clipPath id="96f23687d6"><path d="M 306 166 L 338.558594 166 L 338.558594 213.15625 L 306 213.15625 Z M 306 166 " clip-rule="nonzero"/></clipPath><clipPath id="14aa7995b5"><path d="M 140 72.15625 L 335 72.15625 L 335 195 L 140 195 Z M 140 72.15625 " clip-rule="nonzero"/></clipPath></defs><g clip-path="url(#f942051c38)"><path fill="#233dff" d="M 158.714844 59.101562 L 158.527344 59.105469 L 158.144531 59.109375 L 157.921875 59.113281 L 157.570312 59.121094 L 157.339844 59.125 L 157 59.132812 L 156.769531 59.140625 L 156.421875 59.152344 L 156.199219 59.160156 L 155.832031 59.171875 L 155.632812 59.183594 L 155.167969 59.203125 L 155.066406 59.207031 L 154.503906 59.238281 L 154.339844 59.25 L 153.941406 59.273438 L 153.726562 59.285156 C 153.726562 59.285156 153.472656 59.304688 153.378906 59.308594 C 153.300781 59.316406 153.226562 59.320312 153.152344 59.328125 C 153.058594 59.335938 152.910156 59.34375 152.816406 59.355469 C 152.738281 59.359375 152.660156 59.367188 152.582031 59.371094 C 152.488281 59.378906 152.339844 59.390625 152.246094 59.398438 C 152.171875 59.40625 152.097656 59.414062 152.023438 59.417969 C 151.925781 59.425781 151.765625 59.441406 151.671875 59.449219 C 151.601562 59.457031 151.53125 59.464844 151.464844 59.472656 C 151.359375 59.480469 151.148438 59.5 151.054688 59.511719 C 151.007812 59.515625 150.957031 59.519531 150.902344 59.523438 C 150.789062 59.535156 150.46875 59.570312 150.351562 59.582031 C 150.304688 59.585938 150.253906 59.59375 150.207031 59.597656 C 150.113281 59.609375 149.902344 59.632812 149.796875 59.644531 C 149.726562 59.652344 149.660156 59.664062 149.589844 59.667969 C 149.496094 59.679688 149.339844 59.699219 149.246094 59.710938 C 149.167969 59.71875 149.089844 59.730469 149.015625 59.738281 C 148.921875 59.75 148.785156 59.769531 148.691406 59.78125 C 148.609375 59.789062 148.535156 59.800781 148.453125 59.8125 C 148.363281 59.824219 148.222656 59.839844 148.132812 59.851562 C 148.054688 59.863281 147.976562 59.875 147.902344 59.886719 C 147.808594 59.898438 147.664062 59.917969 147.570312 59.933594 C 147.5 59.945312 147.421875 59.953125 147.347656 59.964844 C 147.253906 59.980469 147.078125 60.003906 146.988281 60.019531 C 146.925781 60.027344 146.863281 60.039062 146.800781 60.046875 C 146.679688 60.066406 146.371094 60.113281 146.261719 60.128906 C 146.222656 60.136719 146.183594 60.140625 146.144531 60.148438 C 146.050781 60.164062 145.820312 60.203125 145.714844 60.21875 C 145.644531 60.230469 145.574219 60.242188 145.503906 60.253906 C 145.414062 60.269531 145.265625 60.296875 145.171875 60.3125 C 145.09375 60.324219 145.015625 60.339844 144.941406 60.351562 C 144.847656 60.367188 144.71875 60.390625 144.628906 60.40625 C 144.546875 60.421875 144.46875 60.4375 144.386719 60.453125 C 144.296875 60.46875 144.171875 60.492188 144.082031 60.507812 C 144 60.523438 143.921875 60.539062 143.84375 60.554688 C 143.753906 60.570312 143.625 60.597656 143.535156 60.613281 C 143.457031 60.628906 143.378906 60.644531 143.300781 60.660156 C 143.207031 60.679688 143.066406 60.707031 142.972656 60.722656 C 142.90625 60.738281 142.832031 60.753906 142.761719 60.765625 C 142.65625 60.789062 142.433594 60.835938 142.34375 60.855469 C 142.304688 60.863281 142.257812 60.871094 142.226562 60.878906 C 142.207031 60.882812 142.1875 60.886719 142.167969 60.890625 C 142.082031 60.910156 141.8125 60.964844 141.699219 60.992188 C 141.628906 61.007812 141.558594 61.023438 141.488281 61.039062 C 141.398438 61.058594 141.257812 61.089844 141.164062 61.109375 C 141.085938 61.128906 141.007812 61.144531 140.929688 61.164062 C 140.84375 61.183594 140.722656 61.210938 140.632812 61.230469 C 140.550781 61.25 140.46875 61.269531 140.390625 61.289062 C 140.300781 61.3125 140.1875 61.335938 140.097656 61.359375 C 140.019531 61.378906 139.9375 61.398438 139.855469 61.417969 C 139.765625 61.441406 139.652344 61.46875 139.5625 61.488281 C 139.480469 61.507812 139.402344 61.527344 139.320312 61.550781 C 139.234375 61.570312 139.109375 61.601562 139.019531 61.625 C 138.945312 61.644531 138.871094 61.664062 138.792969 61.683594 C 138.699219 61.707031 138.539062 61.75 138.449219 61.773438 C 138.386719 61.789062 138.328125 61.804688 138.265625 61.820312 C 138.152344 61.851562 137.875 61.925781 137.753906 61.957031 C 137.6875 61.976562 137.617188 61.992188 137.546875 62.011719 C 137.460938 62.039062 137.324219 62.074219 137.230469 62.101562 C 137.152344 62.121094 137.074219 62.144531 137 62.167969 C 136.910156 62.191406 136.796875 62.222656 136.707031 62.246094 C 136.628906 62.269531 136.546875 62.292969 136.46875 62.316406 C 136.378906 62.34375 136.273438 62.375 136.1875 62.398438 C 136.105469 62.421875 136.023438 62.449219 135.941406 62.472656 C 135.855469 62.496094 135.746094 62.53125 135.660156 62.554688 C 135.582031 62.578125 135.5 62.605469 135.421875 62.628906 C 135.332031 62.652344 135.21875 62.691406 135.132812 62.714844 C 135.054688 62.738281 134.980469 62.761719 134.902344 62.785156 C 134.8125 62.816406 134.671875 62.859375 134.582031 62.886719 C 134.519531 62.90625 134.453125 62.929688 134.386719 62.949219 C 134.269531 62.988281 133.996094 63.074219 133.886719 63.109375 C 133.828125 63.128906 133.769531 63.148438 133.710938 63.167969 C 133.625 63.195312 133.464844 63.25 133.371094 63.28125 C 133.300781 63.304688 133.226562 63.328125 133.15625 63.351562 C 133.070312 63.378906 132.945312 63.421875 132.855469 63.453125 C 132.78125 63.476562 132.707031 63.503906 132.628906 63.527344 C 132.542969 63.558594 132.429688 63.597656 132.34375 63.628906 C 132.265625 63.65625 132.117188 63.707031 132.117188 63.707031 L 131.828125 63.8125 L 131.605469 63.890625 L 131.308594 63.996094 L 131.097656 64.070312 L 130.765625 64.195312 L 130.59375 64.257812 L 130.089844 64.449219 L 130.042969 64.46875 L 129.585938 64.644531 L 129.425781 64.707031 L 129.082031 64.839844 L 128.898438 64.914062 L 128.578125 65.042969 L 128.390625 65.117188 L 128.066406 65.25 L 127.886719 65.324219 L 127.550781 65.464844 L 127.390625 65.53125 L 127.003906 65.699219 L 126.894531 65.742188 L 126.394531 65.960938 L 125.882812 66.1875 L 125.84375 66.203125 L 125.386719 66.410156 L 125.289062 66.457031 L 124.886719 66.640625 L 124.777344 66.691406 L 124.378906 66.875 L 124.28125 66.921875 L 123.863281 67.121094 L 123.789062 67.15625 L 123.304688 67.390625 C 95.949219 80.753906 77.089844 108.863281 77.089844 141.347656 C 77.089844 173.855469 95.984375 201.984375 123.375 215.335938 L 123.863281 215.570312 L 123.90625 215.59375 L 124.363281 215.808594 L 124.417969 215.835938 L 124.878906 216.050781 L 124.921875 216.070312 L 125.425781 216.296875 C 125.597656 216.378906 125.769531 216.453125 125.941406 216.53125 L 126.441406 216.753906 L 126.535156 216.792969 L 126.933594 216.964844 L 127.085938 217.03125 L 127.425781 217.175781 L 127.605469 217.25 L 127.921875 217.382812 L 128.117188 217.460938 L 128.421875 217.585938 L 128.621094 217.667969 L 128.933594 217.792969 L 129.121094 217.867188 L 129.488281 218.011719 L 129.632812 218.066406 L 130.113281 218.253906 L 130.613281 218.441406 L 130.855469 218.53125 L 131.113281 218.625 L 131.367188 218.71875 L 131.621094 218.808594 L 131.878906 218.898438 L 132.125 218.988281 L 132.386719 219.078125 L 132.628906 219.164062 L 132.898438 219.253906 L 133.136719 219.332031 L 133.410156 219.425781 L 133.890625 219.585938 L 134.171875 219.671875 L 134.398438 219.75 L 134.683594 219.835938 L 134.914062 219.910156 L 135.195312 219.996094 L 135.429688 220.066406 L 135.710938 220.152344 L 135.945312 220.222656 L 136.226562 220.304688 L 136.460938 220.371094 L 136.746094 220.453125 L 136.980469 220.523438 L 137.265625 220.601562 L 137.492188 220.664062 L 137.769531 220.742188 L 138.042969 220.8125 L 138.277344 220.875 L 138.558594 220.949219 L 138.800781 221.011719 L 139.332031 221.144531 L 139.609375 221.214844 L 139.859375 221.277344 L 140.132812 221.339844 L 140.390625 221.402344 L 140.664062 221.46875 L 140.925781 221.527344 L 141.195312 221.589844 L 141.476562 221.652344 L 141.726562 221.707031 L 142.234375 221.816406 L 142.480469 221.867188 L 142.773438 221.925781 L 143.027344 221.980469 L 143.308594 222.035156 L 143.570312 222.085938 L 143.851562 222.140625 L 144.109375 222.191406 L 144.394531 222.242188 L 144.652344 222.289062 L 144.945312 222.339844 L 145.191406 222.386719 L 145.511719 222.4375 L 145.734375 222.476562 L 146.265625 222.5625 L 146.425781 222.589844 L 146.8125 222.648438 L 147.035156 222.679688 L 147.359375 222.730469 L 147.597656 222.761719 L 147.910156 222.808594 L 148.152344 222.84375 L 148.464844 222.882812 L 148.707031 222.914062 L 149.023438 222.953125 L 149.257812 222.984375 L 149.601562 223.023438 L 149.808594 223.050781 L 150.25 223.097656 L 150.363281 223.109375 L 150.914062 223.167969 L 151.09375 223.1875 L 151.46875 223.222656 L 151.6875 223.242188 L 152.027344 223.273438 L 152.257812 223.292969 L 152.589844 223.320312 L 152.824219 223.339844 L 153.15625 223.363281 L 153.386719 223.382812 L 153.738281 223.40625 L 153.949219 223.417969 L 154.355469 223.445312 L 154.511719 223.453125 L 155.070312 223.484375 L 155.199219 223.488281 L 155.636719 223.511719 L 155.839844 223.519531 L 156.203125 223.535156 L 156.425781 223.539062 L 156.769531 223.550781 L 157.003906 223.558594 L 157.34375 223.570312 L 157.574219 223.574219 L 157.925781 223.578125 L 158.144531 223.582031 L 158.527344 223.585938 L 158.714844 223.589844 L 159.285156 223.589844 C 159.285156 223.589844 159.8125 223.589844 159.8125 223.589844 L 159.953125 223.585938 L 160.4375 223.582031 L 160.488281 223.582031 L 161.011719 223.574219 L 161.144531 223.570312 L 161.601562 223.558594 L 161.683594 223.558594 L 162.203125 223.539062 L 162.332031 223.535156 L 162.773438 223.515625 L 162.875 223.511719 L 163.394531 223.488281 L 163.511719 223.484375 L 163.949219 223.460938 L 164.0625 223.453125 L 164.582031 223.421875 L 164.683594 223.414062 L 165.125 223.386719 L 165.242188 223.378906 L 165.765625 223.339844 L 165.84375 223.332031 L 166.300781 223.292969 L 166.417969 223.285156 L 166.941406 223.238281 L 166.988281 223.234375 L 167.472656 223.1875 L 167.585938 223.175781 L 168.117188 223.121094 L 168.640625 223.0625 L 168.75 223.050781 L 169.273438 222.988281 L 169.804688 222.921875 L 169.902344 222.910156 L 170.429688 222.839844 L 170.96875 222.765625 L 171.050781 222.753906 L 171.554688 222.679688 L 171.582031 222.675781 L 172.125 222.589844 L 172.1875 222.582031 L 172.695312 222.5 L 172.726562 222.492188 L 173.277344 222.402344 L 173.308594 222.394531 L 173.832031 222.304688 L 173.867188 222.296875 L 174.421875 222.195312 L 174.972656 222.09375 L 175 222.085938 L 175.554688 221.976562 L 176.105469 221.863281 L 176.125 221.859375 L 176.679688 221.742188 L 177.238281 221.617188 C 183.390625 220.246094 189.285156 218.179688 194.835938 215.507812 C 198.507812 213.742188 202.03125 211.707031 205.375 209.433594 C 205.761719 209.171875 206.21875 209.03125 206.683594 209.03125 C 210.101562 209.03125 224.84375 209.03125 232.84375 209.03125 C 233.773438 209.03125 234.613281 209.582031 234.980469 210.433594 C 235.351562 211.289062 235.179688 212.277344 234.542969 212.957031 C 231.257812 216.425781 227.734375 219.671875 224 222.667969 C 224 222.667969 226.539062 230.308594 228.34375 235.746094 C 229.414062 238.960938 228.183594 242.496094 225.347656 244.347656 C 221.929688 246.539062 218.410156 248.570312 214.800781 250.425781 C 211.78125 251.957031 208.117188 251.261719 205.867188 248.730469 C 202.058594 244.449219 196.714844 238.429688 196.714844 238.429688 C 194.878906 239.148438 193.027344 239.8125 191.15625 240.417969 C 190.738281 240.644531 190.296875 240.832031 189.832031 240.976562 C 184.992188 242.449219 180.046875 243.582031 175.035156 244.347656 C 175.035156 244.347656 173.417969 252.238281 172.253906 257.847656 C 171.574219 261.164062 168.746094 263.601562 165.371094 263.785156 C 163.277344 263.890625 161.179688 263.941406 159.085938 263.9375 C 156.988281 263.941406 154.894531 263.890625 152.800781 263.785156 C 149.425781 263.601562 146.597656 261.164062 145.917969 257.847656 C 144.753906 252.238281 143.136719 244.347656 143.136719 244.347656 C 138.125 243.582031 133.183594 242.449219 128.339844 240.976562 C 127.875 240.832031 127.433594 240.644531 127.015625 240.417969 C 125.144531 239.8125 123.292969 239.148438 121.457031 238.429688 C 121.457031 238.429688 116.113281 244.449219 112.300781 248.730469 C 110.058594 251.261719 106.386719 251.957031 103.371094 250.425781 C 99.757812 248.570312 96.242188 246.539062 92.828125 244.347656 C 89.988281 242.496094 88.757812 238.960938 89.828125 235.746094 C 91.632812 230.308594 94.171875 222.667969 94.171875 222.667969 C 88.210938 217.886719 82.789062 212.464844 78.011719 206.496094 C 78.011719 206.496094 70.375 209.039062 64.9375 210.835938 C 61.730469 211.90625 58.203125 210.675781 56.359375 207.839844 C 54.15625 204.425781 52.125 200.90625 50.261719 197.296875 C 48.730469 194.273438 49.429688 190.601562 51.960938 188.351562 C 56.246094 184.542969 62.261719 179.199219 62.261719 179.199219 C 59.484375 172.074219 57.5 164.664062 56.34375 157.109375 C 56.34375 157.109375 48.460938 155.488281 42.851562 154.324219 C 39.539062 153.644531 37.105469 150.8125 36.921875 147.4375 C 36.71875 143.378906 36.71875 139.3125 36.910156 135.257812 C 37.09375 131.871094 39.535156 129.039062 42.851562 128.359375 C 48.460938 127.203125 56.34375 125.585938 56.34375 125.585938 C 57.5 118.027344 59.484375 110.621094 62.261719 103.496094 C 62.261719 103.496094 56.246094 98.148438 51.96875 94.335938 C 49.4375 92.085938 48.742188 88.417969 50.269531 85.398438 C 52.125 81.785156 54.15625 78.265625 56.347656 74.847656 C 58.199219 72.007812 61.726562 70.777344 64.941406 71.847656 C 70.375 73.652344 78.011719 76.195312 78.011719 76.195312 C 82.789062 70.226562 88.210938 64.804688 94.171875 60.023438 C 94.171875 60.023438 91.632812 52.382812 89.835938 46.941406 C 88.769531 43.730469 90 40.203125 92.832031 38.355469 C 96.242188 36.152344 99.757812 34.121094 103.367188 32.253906 C 106.386719 30.722656 110.0625 31.421875 112.308594 33.957031 C 114.140625 36.019531 116.328125 38.484375 118.113281 40.480469 C 120.105469 42.722656 123.25 43.554688 126.085938 42.582031 C 126.417969 42.46875 126.746094 42.359375 127.082031 42.253906 C 127.476562 42.042969 127.898438 41.867188 128.34375 41.726562 C 132.09375 40.574219 135.902344 39.636719 139.761719 38.917969 C 141.425781 38.320312 142.8125 37.15625 143.6875 35.652344 L 145.90625 24.84375 C 146.585938 21.523438 149.417969 19.078125 152.800781 18.894531 C 154.894531 18.796875 156.988281 18.75 159.085938 18.753906 C 161.179688 18.75 163.277344 18.796875 165.371094 18.894531 C 168.75 19.078125 171.585938 21.523438 172.265625 24.84375 L 174.484375 35.652344 C 175.359375 37.15625 176.746094 38.320312 178.410156 38.917969 C 182.269531 39.636719 186.078125 40.574219 189.832031 41.726562 C 190.273438 41.867188 190.695312 42.042969 191.09375 42.253906 C 191.421875 42.359375 191.757812 42.46875 192.085938 42.582031 C 194.921875 43.554688 198.066406 42.722656 200.058594 40.480469 C 201.839844 38.484375 204.03125 36.019531 205.863281 33.957031 C 208.109375 31.421875 211.785156 30.722656 214.804688 32.253906 C 218.410156 34.121094 221.929688 36.152344 225.339844 38.355469 C 228.171875 40.203125 229.402344 43.730469 228.335938 46.941406 C 226.539062 52.382812 224 60.023438 224 60.023438 C 227.734375 63.019531 231.257812 66.265625 234.542969 69.738281 C 235.175781 70.417969 235.347656 71.40625 234.976562 72.253906 C 234.609375 73.109375 233.773438 73.660156 232.84375 73.660156 C 224.84375 73.660156 210.101562 73.660156 206.683594 73.660156 C 206.21875 73.660156 205.761719 73.519531 205.378906 73.253906 C 202.054688 70.996094 198.554688 68.976562 194.90625 67.21875 C 194.570312 67.054688 194.234375 66.894531 193.898438 66.738281 L 193.890625 66.734375 L 193.382812 66.5 L 192.898438 66.28125 L 192.851562 66.261719 L 192.359375 66.042969 L 191.882812 65.832031 L 191.808594 65.804688 L 191.324219 65.59375 L 190.761719 65.359375 L 190.285156 65.164062 L 189.816406 64.972656 L 189.703125 64.925781 L 189.253906 64.75 L 189.234375 64.742188 L 188.769531 64.558594 L 188.238281 64.359375 L 188.167969 64.332031 L 187.710938 64.160156 L 187.578125 64.113281 L 187.199219 63.972656 L 187.09375 63.9375 L 186.640625 63.773438 L 186.503906 63.726562 L 186.140625 63.597656 L 186.015625 63.558594 L 185.566406 63.402344 L 185.429688 63.355469 L 185.070312 63.238281 L 184.933594 63.191406 L 184.480469 63.042969 L 184.34375 63 L 183.992188 62.886719 L 183.84375 62.84375 L 183.390625 62.703125 L 183.261719 62.664062 L 182.902344 62.554688 L 182.75 62.507812 L 182.292969 62.371094 L 182.179688 62.339844 L 181.804688 62.230469 L 181.648438 62.1875 L 181.1875 62.058594 L 181.09375 62.035156 L 180.699219 61.925781 L 180.539062 61.882812 L 180.117188 61.769531 L 180.0625 61.757812 L 180.015625 61.746094 L 179.585938 61.636719 L 179.429688 61.59375 L 179.03125 61.496094 L 178.9375 61.472656 L 178.46875 61.359375 L 178.3125 61.320312 L 177.925781 61.230469 L 177.8125 61.203125 L 177.339844 61.097656 L 177.1875 61.0625 L 176.808594 60.976562 L 176.683594 60.953125 L 176.207031 60.851562 L 176.0625 60.820312 L 175.683594 60.742188 L 175.550781 60.714844 L 175.070312 60.621094 L 174.9375 60.59375 L 174.546875 60.519531 L 174.410156 60.492188 L 173.925781 60.40625 L 173.804688 60.382812 L 173.40625 60.3125 L 173.269531 60.289062 L 172.777344 60.207031 L 172.675781 60.191406 L 172.261719 60.125 L 172.117188 60.101562 L 171.621094 60.023438 L 171.546875 60.011719 L 171.109375 59.949219 L 170.964844 59.929688 L 170.460938 59.859375 L 170.421875 59.851562 L 169.949219 59.789062 L 169.804688 59.773438 L 169.332031 59.710938 L 169.292969 59.707031 L 168.78125 59.644531 L 168.644531 59.628906 L 168.191406 59.582031 L 168.125 59.574219 L 167.613281 59.519531 L 167.476562 59.507812 L 167.039062 59.464844 L 166.949219 59.453125 L 166.4375 59.410156 L 166.308594 59.398438 L 165.875 59.363281 L 165.769531 59.355469 L 165.257812 59.316406 L 165.136719 59.308594 L 164.707031 59.277344 L 164.585938 59.269531 L 164.070312 59.238281 L 163.960938 59.234375 L 163.523438 59.210938 L 163.398438 59.203125 L 162.878906 59.179688 L 162.785156 59.175781 L 162.339844 59.160156 L 162.210938 59.152344 L 161.6875 59.136719 L 161.609375 59.132812 L 161.148438 59.121094 L 161.015625 59.121094 L 160.488281 59.109375 L 160.441406 59.109375 L 159.953125 59.105469 L 159.816406 59.101562 Z M 158.714844 59.101562 " fill-opacity="1" fill-rule="evenodd"/></g><g clip-path="url(#2a9fa5519b)"><path fill="#233dff" d="M 151.40625 196.855469 C 145.308594 196.792969 137.976562 192.996094 137.636719 175.332031 C 137.636719 175.058594 137.621094 174.78125 137.621094 174.488281 C 137.621094 174.292969 137.621094 174.101562 137.621094 173.90625 L 137.621094 173.855469 L 137.910156 166.136719 C 136.777344 167.449219 136.078125 169.167969 136.078125 171.035156 L 136.078125 205.695312 C 136.078125 209.816406 139.421875 213.15625 143.539062 213.15625 L 160.230469 213.15625 C 164.351562 213.15625 167.691406 209.816406 167.691406 205.695312 L 167.691406 196.855469 L 151.570312 196.855469 C 151.519531 196.855469 151.457031 196.855469 151.40625 196.855469 Z M 151.40625 196.855469 " fill-opacity="1" fill-rule="nonzero"/></g><g clip-path="url(#96f23687d6)"><path fill="#233dff" d="M 336.707031 166.136719 L 336.996094 173.90625 C 336.996094 174.101562 336.996094 174.292969 336.996094 174.488281 C 336.996094 174.765625 336.996094 175.058594 336.980469 175.332031 C 336.640625 193.011719 329.308594 196.792969 323.195312 196.855469 L 306.910156 196.855469 L 306.910156 205.695312 C 306.910156 209.816406 310.25 213.15625 314.371094 213.15625 L 331.0625 213.15625 C 335.179688 213.15625 338.523438 209.816406 338.523438 205.695312 L 338.523438 171.035156 C 338.539062 169.167969 337.839844 167.449219 336.707031 166.136719 Z M 336.707031 166.136719 " fill-opacity="1" fill-rule="nonzero"/></g><g clip-path="url(#14aa7995b5)"><path fill="#233dff" d="M 334.191406 164.253906 L 333.589844 148.34375 L 333.589844 148.246094 C 333.589844 148.195312 333.589844 148.148438 333.574219 148.097656 L 333.542969 147.660156 C 333.527344 147.546875 333.511719 147.433594 333.511719 147.320312 C 333.511719 147.273438 333.496094 147.222656 333.496094 147.175781 C 333.476562 147.109375 333.476562 147.027344 333.476562 146.964844 C 333.476562 146.898438 333.460938 146.832031 333.445312 146.753906 L 333.429688 146.640625 C 333.414062 146.558594 333.414062 146.476562 333.398438 146.394531 L 333.382812 146.265625 C 333.363281 146.203125 333.363281 146.136719 333.347656 146.070312 L 333.316406 145.910156 C 333.25 145.519531 333.1875 145.148438 333.121094 144.804688 C 333.074219 144.53125 333.007812 144.253906 332.941406 143.996094 L 332.894531 143.769531 C 332.878906 143.6875 332.84375 143.605469 332.828125 143.507812 C 332.78125 143.28125 332.714844 143.070312 332.652344 142.84375 C 332.601562 142.632812 332.539062 142.421875 332.472656 142.210938 C 332.457031 142.144531 332.425781 142.050781 332.359375 141.902344 C 332.195312 141.496094 331.742188 140.460938 330.753906 139.128906 C 330.558594 138.886719 330.332031 138.609375 330.089844 138.320312 C 326.339844 133.777344 317.761719 123.949219 313.332031 118.886719 C 312.050781 118.953125 310.820312 118.984375 309.632812 119 C 307.996094 119.015625 307.023438 117.71875 307.414062 116 C 307.703125 114.71875 308.0625 113.355469 308.515625 111.894531 L 292.78125 80.007812 C 292.683594 79.8125 292.570312 79.617188 292.472656 79.425781 C 292.441406 79.359375 292.394531 79.292969 292.359375 79.230469 C 292.296875 79.117188 292.230469 79.019531 292.164062 78.921875 C 292.101562 78.824219 292.019531 78.710938 291.953125 78.613281 C 291.679688 78.238281 291.371094 77.851562 291.03125 77.511719 C 288.988281 75.386719 286.035156 74.039062 282.902344 73.8125 C 281.363281 73.699219 280.097656 73.617188 278.914062 73.535156 C 277.664062 73.453125 276.414062 73.375 275.152344 73.292969 C 274.0625 73.226562 272.960938 73.164062 271.859375 73.097656 L 271.808594 73.097656 C 270.691406 73.03125 269.554688 72.96875 268.433594 72.917969 C 264.65625 72.726562 260.78125 72.578125 256.917969 72.449219 L 256.871094 72.449219 C 256.53125 72.433594 256.171875 72.433594 255.832031 72.417969 C 251.175781 72.269531 246.503906 72.191406 241.933594 72.15625 C 241.625 72.15625 241.316406 72.15625 241.007812 72.15625 C 240.421875 72.15625 239.839844 72.15625 239.253906 72.15625 C 237.375 72.15625 235.476562 72.15625 233.59375 72.15625 C 233.285156 72.15625 232.976562 72.15625 232.671875 72.15625 C 228.097656 72.191406 223.425781 72.269531 218.785156 72.417969 C 214.714844 72.546875 210.609375 72.707031 206.570312 72.902344 L 206.507812 72.902344 C 205.921875 72.9375 205.355469 72.96875 204.769531 72.984375 C 203.878906 73.03125 202.988281 73.082031 202.09375 73.128906 C 201.21875 73.179688 200.34375 73.226562 199.46875 73.292969 C 198.203125 73.375 196.953125 73.453125 195.703125 73.535156 C 194.519531 73.617188 193.238281 73.699219 191.699219 73.8125 C 188.566406 74.039062 185.617188 75.386719 183.570312 77.511719 C 183.230469 77.851562 182.921875 78.222656 182.648438 78.628906 C 182.582031 78.726562 182.5 78.824219 182.4375 78.921875 C 182.371094 79.019531 182.304688 79.117188 182.242188 79.214844 C 182.191406 79.277344 182.160156 79.34375 182.128906 79.40625 C 182.03125 79.585938 181.917969 79.78125 181.804688 79.992188 L 166.070312 111.863281 C 166.523438 113.324219 166.882812 114.703125 167.171875 115.96875 C 167.5625 117.6875 166.589844 118.984375 164.949219 118.96875 C 163.765625 118.953125 162.535156 118.917969 161.253906 118.855469 C 156.808594 123.929688 148.195312 133.792969 144.496094 138.285156 C 144.253906 138.578125 144.027344 138.855469 143.832031 139.097656 C 142.84375 140.425781 142.390625 141.480469 142.242188 141.871094 C 142.179688 142.03125 142.144531 142.128906 142.128906 142.195312 C 142.0625 142.421875 142 142.632812 141.949219 142.84375 C 141.902344 143.023438 141.855469 143.21875 141.804688 143.410156 L 141.773438 143.507812 C 141.757812 143.574219 141.738281 143.621094 141.738281 143.6875 C 141.722656 143.753906 141.707031 143.800781 141.707031 143.867188 C 141.644531 144.191406 141.5625 144.5 141.511719 144.804688 C 141.449219 145.164062 141.367188 145.535156 141.316406 145.925781 L 141.253906 146.394531 C 141.238281 146.476562 141.238281 146.558594 141.222656 146.65625 L 141.203125 146.753906 C 141.1875 146.832031 141.1875 146.898438 141.171875 146.980469 C 141.15625 147.0625 141.15625 147.160156 141.140625 147.238281 L 141.089844 147.660156 C 141.074219 147.808594 141.058594 147.9375 141.058594 148.066406 L 141.058594 148.148438 C 141.058594 148.179688 141.058594 148.230469 141.042969 148.261719 L 141.042969 148.359375 L 140.441406 164.269531 L 140.085938 173.9375 C 140.085938 174.117188 140.085938 174.292969 140.085938 174.472656 L 140.085938 174.488281 C 140.085938 174.765625 140.085938 175.023438 140.101562 175.285156 C 140.230469 181.984375 141.398438 187.011719 143.574219 190.222656 C 145.46875 193.011719 148.050781 194.390625 151.472656 194.421875 L 151.503906 194.421875 C 151.535156 194.421875 151.570312 194.421875 151.617188 194.421875 L 323.226562 194.421875 C 326.632812 194.390625 329.210938 193.011719 331.109375 190.222656 C 333.285156 187.011719 334.46875 181.984375 334.582031 175.285156 C 334.582031 175.023438 334.597656 174.75 334.597656 174.488281 L 334.597656 174.472656 C 334.597656 174.292969 334.597656 174.117188 334.597656 173.9375 Z M 170.109375 115.691406 L 170.171875 115.496094 L 176.90625 101.855469 L 179.078125 97.460938 L 180.164062 95.269531 L 183.378906 88.765625 L 186.539062 82.359375 C 186.589844 82.246094 186.636719 82.164062 186.6875 82.101562 L 186.734375 82.019531 L 186.765625 81.96875 C 186.785156 81.9375 186.816406 81.90625 186.832031 81.875 C 186.863281 81.824219 186.898438 81.777344 186.929688 81.726562 C 187.074219 81.53125 187.222656 81.355469 187.382812 81.191406 L 187.398438 81.175781 C 188.535156 79.992188 190.285156 79.214844 192.101562 79.082031 C 193.628906 78.96875 194.894531 78.886719 196.0625 78.808594 C 197.308594 78.726562 198.558594 78.644531 199.808594 78.5625 C 200.667969 78.515625 201.527344 78.46875 202.402344 78.417969 C 203.277344 78.371094 204.171875 78.320312 205.0625 78.273438 C 205.648438 78.238281 206.246094 78.207031 206.847656 78.175781 C 210.855469 77.980469 214.925781 77.816406 218.964844 77.6875 C 223.570312 77.558594 228.191406 77.460938 232.71875 77.429688 L 232.75 77.429688 C 233.042969 77.429688 233.351562 77.429688 233.644531 77.429688 C 234.890625 77.429688 236.15625 77.414062 237.40625 77.414062 C 238.023438 77.414062 238.640625 77.414062 239.253906 77.414062 L 239.289062 77.414062 C 239.855469 77.414062 240.421875 77.414062 240.992188 77.414062 C 241.300781 77.414062 241.589844 77.414062 241.898438 77.414062 L 241.933594 77.414062 C 246.472656 77.445312 251.097656 77.527344 255.71875 77.671875 C 256.058594 77.6875 256.398438 77.6875 256.742188 77.703125 L 256.886719 77.703125 C 260.699219 77.835938 264.511719 77.980469 268.222656 78.175781 C 269.34375 78.222656 270.464844 78.289062 271.566406 78.351562 L 271.746094 78.371094 L 271.761719 78.371094 C 272.816406 78.433594 273.851562 78.5 274.890625 78.546875 C 276.140625 78.628906 277.371094 78.710938 278.621094 78.792969 C 279.804688 78.871094 281.070312 78.953125 282.59375 79.066406 C 284.414062 79.195312 286.164062 79.976562 287.300781 81.160156 C 287.460938 81.320312 287.609375 81.5 287.738281 81.695312 C 287.785156 81.742188 287.820312 81.808594 287.851562 81.855469 C 287.867188 81.890625 287.882812 81.921875 287.914062 81.953125 L 287.964844 82.019531 L 287.996094 82.082031 C 288.046875 82.164062 288.09375 82.261719 288.144531 82.34375 L 291.304688 88.75 L 294.515625 95.253906 L 295.585938 97.429688 L 297.761719 101.824219 L 304.734375 115.953125 L 169.945312 115.953125 Z M 175.835938 186.039062 C 172.816406 186.039062 170.367188 183.589844 170.367188 180.570312 C 170.367188 177.554688 172.816406 175.105469 175.835938 175.105469 C 178.851562 175.105469 181.300781 177.554688 181.300781 180.570312 C 181.300781 183.589844 178.851562 186.039062 175.835938 186.039062 Z M 188.179688 165.308594 C 187.949219 166.816406 184.722656 167.011719 182.90625 166.945312 C 177.261719 166.71875 171.617188 166.492188 165.972656 166.265625 C 164.027344 166.183594 162.078125 166.101562 160.132812 166.039062 C 158.917969 165.988281 153.273438 165.925781 152.234375 165.242188 C 151.601562 164.839844 151.132812 164.238281 150.726562 163.574219 C 150.320312 162.875 149.996094 162.097656 149.703125 161.335938 C 148.015625 157.035156 143.214844 147.289062 146.71875 147.628906 C 154.066406 148.359375 178.558594 151.699219 182.566406 152.738281 C 184.238281 153.160156 188.601562 162.550781 188.179688 165.308594 Z M 277.535156 163.734375 L 271.921875 180.929688 C 271.339844 182.730469 270.058594 183.929688 268.742188 183.929688 L 205.875 183.929688 C 204.558594 183.929688 203.277344 182.730469 202.695312 180.929688 L 197.082031 163.734375 C 196.0625 160.589844 197.261719 157.296875 199.5 157.296875 L 275.132812 157.296875 C 277.355469 157.296875 278.558594 160.589844 277.535156 163.734375 Z M 298.785156 186.039062 C 295.765625 186.039062 293.316406 183.589844 293.316406 180.570312 C 293.316406 177.554688 295.765625 175.105469 298.785156 175.105469 C 301.800781 175.105469 304.25 177.554688 304.25 180.570312 C 304.25 183.589844 301.800781 186.039062 298.785156 186.039062 Z M 322.382812 165.242188 C 321.34375 165.925781 315.699219 165.988281 314.484375 166.039062 C 312.539062 166.121094 310.589844 166.199219 308.644531 166.265625 C 303 166.492188 297.355469 166.71875 291.710938 166.945312 C 289.894531 167.011719 286.667969 166.816406 286.441406 165.308594 C 286.019531 162.550781 290.382812 153.160156 292.050781 152.738281 C 296.058594 151.714844 320.550781 148.359375 327.898438 147.628906 C 331.402344 147.289062 326.601562 157.035156 324.914062 161.335938 C 324.621094 162.097656 324.296875 162.875 323.890625 163.574219 C 323.488281 164.238281 323.015625 164.839844 322.382812 165.242188 Z M 322.382812 165.242188 " fill-opacity="1" fill-rule="nonzero"/></g><path fill="#233dff" d="M 331.5625 103.785156 C 329.179688 103.414062 326.4375 103.136719 323.324219 103.121094 C 319.984375 103.089844 316.867188 103.347656 314.09375 103.738281 C 312.585938 103.949219 311.09375 105.164062 310.445312 106.671875 C 310.167969 107.304688 309.910156 107.972656 309.652344 108.667969 C 309.457031 109.1875 309.261719 109.707031 309.082031 110.257812 C 308.921875 110.726562 308.757812 111.199219 308.613281 111.703125 C 308.597656 111.765625 308.5625 111.847656 308.546875 111.914062 C 308.09375 113.371094 307.738281 114.75 307.445312 116.015625 C 307.054688 117.734375 308.027344 119.03125 309.667969 119.015625 C 310.851562 119 312.082031 118.96875 313.363281 118.902344 C 313.867188 118.871094 314.386719 118.855469 314.90625 118.804688 C 315.410156 118.773438 315.910156 118.742188 316.429688 118.691406 C 317.289062 118.628906 318.148438 118.53125 319.042969 118.433594 C 322.027344 118.09375 324.847656 117.636719 327.476562 117.117188 C 328.773438 116.859375 330.039062 115.886719 330.71875 114.621094 C 331.351562 113.453125 332.003906 112.058594 332.519531 110.46875 C 333.023438 108.878906 333.285156 107.484375 333.398438 106.316406 C 333.527344 104.96875 332.796875 103.980469 331.5625 103.785156 Z M 331.5625 103.785156 " fill-opacity="1" fill-rule="nonzero"/><path fill="#233dff" d="M 166.070312 111.894531 C 166.054688 111.832031 166.019531 111.75 166.003906 111.683594 C 165.84375 111.199219 165.695312 110.710938 165.535156 110.242188 C 165.339844 109.707031 165.160156 109.171875 164.96875 108.652344 C 164.707031 107.953125 164.433594 107.289062 164.171875 106.65625 C 163.539062 105.132812 162.03125 103.914062 160.523438 103.722656 C 157.75 103.332031 154.617188 103.089844 151.292969 103.105469 C 148.179688 103.136719 145.4375 103.398438 143.054688 103.769531 C 141.820312 103.964844 141.089844 104.96875 141.222656 106.300781 C 141.335938 107.46875 141.59375 108.863281 142.097656 110.453125 C 142.617188 112.042969 143.265625 113.453125 143.898438 114.605469 C 144.578125 115.871094 145.859375 116.84375 147.140625 117.101562 C 149.769531 117.621094 152.589844 118.074219 155.574219 118.417969 C 156.46875 118.515625 157.34375 118.59375 158.1875 118.675781 C 158.707031 118.726562 159.207031 118.757812 159.710938 118.789062 C 160.230469 118.820312 160.75 118.855469 161.253906 118.886719 C 162.535156 118.953125 163.765625 118.984375 164.949219 119 C 166.589844 119.015625 167.5625 117.71875 167.171875 116 C 166.898438 114.734375 166.523438 113.355469 166.070312 111.894531 Z M 166.070312 111.894531 " fill-opacity="1" fill-rule="nonzero"/><path fill="#233dff" d="M 199.386719 162.988281 L 200.230469 165.585938 L 274.371094 165.585938 L 275.214844 162.988281 C 275.296875 162.761719 275.34375 162.550781 275.378906 162.339844 L 199.222656 162.339844 C 199.257812 162.535156 199.320312 162.761719 199.386719 162.988281 Z M 199.386719 162.988281 " fill-opacity="1" fill-rule="nonzero"/><path fill="#233dff" d="M 202.417969 172.234375 L 272.199219 172.234375 L 273.253906 168.992188 L 201.347656 168.992188 Z M 202.417969 172.234375 " fill-opacity="1" fill-rule="nonzero"/><path fill="#233dff" d="M 204.59375 178.882812 L 270.023438 178.882812 L 271.078125 175.640625 L 203.523438 175.640625 Z M 204.59375 178.882812 " fill-opacity="1" fill-rule="nonzero"/><g fill="#233dff" fill-opacity="1"><g transform="translate(15.570107, 322.940238)"><g><path d="M 8.6875 -34.746094 C 4.863281 -34.746094 1.738281 -31.617188 1.738281 -27.796875 L 1.738281 0 L 8.6875 0 L 8.6875 -13.898438 L 29.535156 -13.898438 L 29.535156 0 L 36.480469 0 L 36.480469 -27.796875 C 36.480469 -31.617188 33.355469 -34.746094 29.535156 -34.746094 Z M 8.6875 -27.796875 L 29.535156 -27.796875 L 29.535156 -20.847656 L 8.6875 -20.847656 Z M 8.6875 -27.796875 "/></g></g></g><g fill="#233dff" fill-opacity="1"><g transform="translate(53.774895, 322.940238)"><g><path d="M 29.535156 0 C 33.355469 0 36.480469 -3.128906 36.480469 -6.949219 L 36.480469 -34.746094 L 29.535156 -34.746094 L 29.535156 -6.949219 L 8.6875 -6.949219 L 8.6875 -34.746094 L 1.738281 -34.746094 L 1.738281 -6.949219 C 1.738281 -3.128906 4.863281 0 8.6875 0 Z M 29.535156 0 "/></g></g></g><g fill="#233dff" fill-opacity="1"><g transform="translate(91.979684, 322.940238)"><g><path d="M 36.480469 -34.746094 L 1.738281 -34.746094 L 1.738281 -27.796875 L 15.636719 -27.796875 L 15.636719 0 L 22.585938 0 L 22.585938 -27.796875 L 36.480469 -27.796875 Z M 36.480469 -34.746094 "/></g></g></g><g fill="#233dff" fill-opacity="1"><g transform="translate(130.184472, 322.940238)"><g><path d="M 29.535156 0 C 33.398438 0 36.480469 -3.171875 36.480469 -6.949219 L 36.480469 -27.796875 C 36.480469 -31.617188 33.355469 -34.746094 29.535156 -34.746094 L 8.6875 -34.746094 C 4.863281 -34.746094 1.738281 -31.617188 1.738281 -27.796875 L 1.738281 -6.949219 C 1.738281 -3.128906 4.863281 0 8.6875 0 Z M 8.6875 -27.796875 L 29.535156 -27.796875 L 29.535156 -6.949219 L 8.6875 -6.949219 Z M 8.6875 -27.796875 "/></g></g></g><g fill="#233dff" fill-opacity="1"><g transform="translate(168.389261, 322.940238)"><g><path d="M 29.535156 -34.746094 L 1.738281 -34.746094 L 1.738281 0 L 8.6875 0 L 8.6875 -13.898438 L 29.535156 -13.898438 C 33.355469 -13.898438 36.480469 -17.023438 36.480469 -20.847656 L 36.480469 -27.796875 C 36.480469 -31.617188 33.355469 -34.746094 29.535156 -34.746094 Z M 8.6875 -20.847656 L 8.6875 -27.796875 L 29.535156 -27.796875 L 29.535156 -20.847656 Z M 8.6875 -20.847656 "/></g></g></g><g fill="#233dff" fill-opacity="1"><g transform="translate(206.594049, 322.940238)"><g><path d="M 8.6875 -34.746094 C 4.863281 -34.746094 1.738281 -31.617188 1.738281 -27.796875 L 1.738281 0 L 8.6875 0 L 8.6875 -13.898438 L 29.535156 -13.898438 L 29.535156 0 L 36.480469 0 L 36.480469 -27.796875 C 36.480469 -31.617188 33.355469 -34.746094 29.535156 -34.746094 Z M 8.6875 -27.796875 L 29.535156 -27.796875 L 29.535156 -20.847656 L 8.6875 -20.847656 Z M 8.6875 -27.796875 "/></g></g></g><g fill="#233dff" fill-opacity="1"><g transform="translate(244.798837, 322.940238)"><g><path d="M 36.480469 -27.796875 C 36.480469 -31.617188 33.355469 -34.746094 29.535156 -34.746094 L 1.738281 -34.746094 L 1.738281 0 L 8.6875 0 L 8.6875 -13.898438 L 12.769531 -13.898438 L 25.625 -1.042969 C 26.320312 -0.347656 27.1875 0 28.144531 0 L 36.480469 0 L 36.480469 -6.949219 L 29.535156 -6.949219 L 22.585938 -13.898438 L 29.535156 -13.898438 C 33.355469 -13.898438 36.480469 -17.023438 36.480469 -20.847656 Z M 29.535156 -27.796875 L 29.535156 -20.847656 L 8.6875 -20.847656 L 8.6875 -27.796875 Z M 29.535156 -27.796875 "/></g></g></g><g fill="#233dff" fill-opacity="1"><g transform="translate(283.003626, 322.940238)"><g><path d="M 36.480469 -34.746094 L 1.738281 -34.746094 L 1.738281 -27.796875 L 15.636719 -27.796875 L 15.636719 0 L 22.585938 0 L 22.585938 -27.796875 L 36.480469 -27.796875 Z M 36.480469 -34.746094 "/></g></g></g><g fill="#233dff" fill-opacity="1"><g transform="translate(321.208414, 322.940238)"><g><path d="M 36.480469 -34.746094 L 8.6875 -34.746094 C 4.863281 -34.746094 1.738281 -31.617188 1.738281 -27.796875 L 1.738281 -20.847656 C 1.738281 -17.023438 4.863281 -13.898438 8.6875 -13.898438 L 29.535156 -13.898438 L 29.535156 -6.949219 L 1.738281 -6.949219 L 1.738281 0 L 29.535156 0 C 33.355469 0 36.480469 -3.128906 36.480469 -6.949219 L 36.480469 -13.898438 C 36.480469 -17.71875 33.355469 -20.847656 29.535156 -20.847656 L 8.6875 -20.847656 L 8.6875 -27.796875 L 36.480469 -27.796875 Z M 36.480469 -34.746094 "/></g></g></g><g fill="#12229d" fill-opacity="1"><g transform="translate(37.714954, 350.912741)"><g><path d="M 8.0625 -14.09375 C 9.050781 -14.09375 10.015625 -13.898438 10.953125 -13.515625 C 11.898438 -13.140625 12.710938 -12.609375 13.390625 -11.921875 L 12.015625 -10.203125 C 11.503906 -10.753906 10.898438 -11.1875 10.203125 -11.5 C 9.503906 -11.820312 8.800781 -11.984375 8.09375 -11.984375 C 6.695312 -11.984375 5.515625 -11.503906 4.546875 -10.546875 C 3.578125 -9.597656 3.09375 -8.4375 3.09375 -7.0625 C 3.09375 -5.664062 3.578125 -4.488281 4.546875 -3.53125 C 5.515625 -2.582031 6.695312 -2.109375 8.09375 -2.109375 C 9.550781 -2.109375 10.859375 -2.660156 12.015625 -3.765625 L 13.40625 -2.203125 C 12.6875 -1.492188 11.84375 -0.929688 10.875 -0.515625 C 9.914062 -0.109375 8.953125 0.09375 7.984375 0.09375 C 5.921875 0.09375 4.1875 -0.585938 2.78125 -1.953125 C 1.382812 -3.328125 0.6875 -5.019531 0.6875 -7.03125 C 0.6875 -9.03125 1.394531 -10.707031 2.8125 -12.0625 C 4.238281 -13.414062 5.988281 -14.09375 8.0625 -14.09375 Z M 8.0625 -14.09375 "/></g></g></g><g fill="#12229d" fill-opacity="1"><g transform="translate(59.646554, 350.912741)"><g><path d="M 10.90625 -3.171875 L 3.828125 -3.171875 L 2.484375 0 L 0.015625 0 L 6.21875 -14.03125 L 8.640625 -14.03125 L 14.78125 0 L 12.25 0 Z M 10 -5.265625 L 7.359375 -11.5 L 4.71875 -5.265625 Z M 10 -5.265625 "/></g></g></g><g fill="#12229d" fill-opacity="1"><g transform="translate(82.399822, 350.912741)"><g><path d="M 10.75 0 L 8.171875 -4.25 C 8.046875 -4.238281 7.832031 -4.234375 7.53125 -4.234375 L 4.203125 -4.234375 L 4.203125 0 L 1.84375 0 L 1.84375 -14.03125 L 7.53125 -14.03125 C 9.320312 -14.03125 10.710938 -13.613281 11.703125 -12.78125 C 12.691406 -11.945312 13.1875 -10.765625 13.1875 -9.234375 C 13.1875 -8.117188 12.9375 -7.171875 12.4375 -6.390625 C 11.9375 -5.617188 11.21875 -5.050781 10.28125 -4.6875 L 13.4375 0 Z M 4.203125 -6.359375 L 7.53125 -6.359375 C 9.8125 -6.359375 10.953125 -7.300781 10.953125 -9.1875 C 10.953125 -11 9.8125 -11.90625 7.53125 -11.90625 L 4.203125 -11.90625 Z M 4.203125 -6.359375 "/></g></g></g><g fill="#12229d" fill-opacity="1"><g transform="translate(104.852476, 350.912741)"><g/></g></g><g fill="#12229d" fill-opacity="1"><g transform="translate(117.986312, 350.912741)"><g><path d="M 10.75 0 L 8.171875 -4.25 C 8.046875 -4.238281 7.832031 -4.234375 7.53125 -4.234375 L 4.203125 -4.234375 L 4.203125 0 L 1.84375 0 L 1.84375 -14.03125 L 7.53125 -14.03125 C 9.320312 -14.03125 10.710938 -13.613281 11.703125 -12.78125 C 12.691406 -11.945312 13.1875 -10.765625 13.1875 -9.234375 C 13.1875 -8.117188 12.9375 -7.171875 12.4375 -6.390625 C 11.9375 -5.617188 11.21875 -5.050781 10.28125 -4.6875 L 13.4375 0 Z M 4.203125 -6.359375 L 7.53125 -6.359375 C 9.8125 -6.359375 10.953125 -7.300781 10.953125 -9.1875 C 10.953125 -11 9.8125 -11.90625 7.53125 -11.90625 L 4.203125 -11.90625 Z M 4.203125 -6.359375 "/></g></g></g><g fill="#12229d" fill-opacity="1"><g transform="translate(140.438967, 350.912741)"><g><path d="M 11.875 -11.90625 L 4.203125 -11.90625 L 4.203125 -8.125 L 11.0625 -8.125 L 11.0625 -6 L 4.203125 -6 L 4.203125 -2.125 L 12.109375 -2.125 L 12.109375 0 L 1.84375 0 L 1.84375 -14.03125 L 11.875 -14.03125 Z M 11.875 -11.90625 "/></g></g></g><g fill="#12229d" fill-opacity="1"><g transform="translate(161.548917, 350.912741)"><g><path d="M 1.84375 -14.03125 L 7.4375 -14.03125 C 9.195312 -14.03125 10.5625 -13.613281 11.53125 -12.78125 C 12.5 -11.945312 12.984375 -10.765625 12.984375 -9.234375 C 12.984375 -7.648438 12.5 -6.421875 11.53125 -5.546875 C 10.5625 -4.671875 9.195312 -4.234375 7.4375 -4.234375 L 4.203125 -4.234375 L 4.203125 0 L 1.84375 0 Z M 4.203125 -11.90625 L 4.203125 -6.359375 L 7.34375 -6.359375 C 9.59375 -6.359375 10.71875 -7.300781 10.71875 -9.1875 C 10.71875 -11 9.59375 -11.90625 7.34375 -11.90625 Z M 4.203125 -11.90625 "/></g></g></g><g fill="#12229d" fill-opacity="1"><g transform="translate(182.999558, 350.912741)"><g><path d="M 10.90625 -3.171875 L 3.828125 -3.171875 L 2.484375 0 L 0.015625 0 L 6.21875 -14.03125 L 8.640625 -14.03125 L 14.78125 0 L 12.25 0 Z M 10 -5.265625 L 7.359375 -11.5 L 4.71875 -5.265625 Z M 10 -5.265625 "/></g></g></g><g fill="#12229d" fill-opacity="1"><g transform="translate(205.752826, 350.912741)"><g><path d="M 4.203125 0 L 1.84375 0 L 1.84375 -14.03125 L 4.203125 -14.03125 Z M 4.203125 0 "/></g></g></g><g fill="#12229d" fill-opacity="1"><g transform="translate(219.768456, 350.912741)"><g><path d="M 10.75 0 L 8.171875 -4.25 C 8.046875 -4.238281 7.832031 -4.234375 7.53125 -4.234375 L 4.203125 -4.234375 L 4.203125 0 L 1.84375 0 L 1.84375 -14.03125 L 7.53125 -14.03125 C 9.320312 -14.03125 10.710938 -13.613281 11.703125 -12.78125 C 12.691406 -11.945312 13.1875 -10.765625 13.1875 -9.234375 C 13.1875 -8.117188 12.9375 -7.171875 12.4375 -6.390625 C 11.9375 -5.617188 11.21875 -5.050781 10.28125 -4.6875 L 13.4375 0 Z M 4.203125 -6.359375 L 7.53125 -6.359375 C 9.8125 -6.359375 10.953125 -7.300781 10.953125 -9.1875 C 10.953125 -11 9.8125 -11.90625 7.53125 -11.90625 L 4.203125 -11.90625 Z M 4.203125 -6.359375 "/></g></g></g><g fill="#12229d" fill-opacity="1"><g transform="translate(242.221102, 350.912741)"><g/></g></g><g fill="#12229d" fill-opacity="1"><g transform="translate(255.354928, 350.912741)"><g><path d="M 6.453125 -14.140625 C 8.273438 -14.140625 9.910156 -13.65625 11.359375 -12.6875 L 10.390625 -10.609375 C 8.953125 -11.472656 7.582031 -11.90625 6.28125 -11.90625 C 5.570312 -11.90625 5.007812 -11.773438 4.59375 -11.515625 C 4.1875 -11.265625 3.984375 -10.90625 3.984375 -10.4375 C 3.984375 -9.976562 4.171875 -9.582031 4.546875 -9.25 C 4.921875 -8.925781 5.390625 -8.6875 5.953125 -8.53125 C 6.515625 -8.375 7.125 -8.175781 7.78125 -7.9375 C 8.4375 -7.707031 9.039062 -7.460938 9.59375 -7.203125 C 10.15625 -6.941406 10.617188 -6.535156 10.984375 -5.984375 C 11.359375 -5.429688 11.546875 -4.757812 11.546875 -3.96875 C 11.546875 -2.738281 11.050781 -1.753906 10.0625 -1.015625 C 9.082031 -0.285156 7.8125 0.078125 6.25 0.078125 C 5.1875 0.078125 4.148438 -0.117188 3.140625 -0.515625 C 2.140625 -0.921875 1.265625 -1.460938 0.515625 -2.140625 L 1.546875 -4.1875 C 2.253906 -3.53125 3.03125 -3.023438 3.875 -2.671875 C 4.726562 -2.316406 5.535156 -2.140625 6.296875 -2.140625 C 7.117188 -2.140625 7.757812 -2.289062 8.21875 -2.59375 C 8.6875 -2.894531 8.921875 -3.3125 8.921875 -3.84375 C 8.921875 -4.332031 8.734375 -4.738281 8.359375 -5.0625 C 7.984375 -5.382812 7.515625 -5.625 6.953125 -5.78125 C 6.390625 -5.9375 5.78125 -6.125 5.125 -6.34375 C 4.476562 -6.5625 3.875 -6.796875 3.3125 -7.046875 C 2.75 -7.296875 2.28125 -7.691406 1.90625 -8.234375 C 1.53125 -8.785156 1.34375 -9.445312 1.34375 -10.21875 C 1.34375 -11.414062 1.8125 -12.367188 2.75 -13.078125 C 3.6875 -13.785156 4.921875 -14.140625 6.453125 -14.140625 Z M 6.453125 -14.140625 "/></g></g></g><g fill="#12229d" fill-opacity="1"><g transform="translate(275.783488, 350.912741)"><g><path d="M 14.015625 0 L 11.640625 0 L 11.640625 -5.8125 L 4.203125 -5.8125 L 4.203125 0 L 1.84375 0 L 1.84375 -14.03125 L 4.203125 -14.03125 L 4.203125 -7.9375 L 11.640625 -7.9375 L 11.640625 -14.03125 L 14.015625 -14.03125 Z M 14.015625 0 "/></g></g></g><g fill="#12229d" fill-opacity="1"><g transform="translate(299.598896, 350.912741)"><g><path d="M 2.828125 -12.0625 C 4.253906 -13.414062 6.015625 -14.09375 8.109375 -14.09375 C 10.210938 -14.09375 11.976562 -13.414062 13.40625 -12.0625 C 14.84375 -10.707031 15.5625 -9.023438 15.5625 -7.015625 C 15.5625 -5.015625 14.84375 -3.328125 13.40625 -1.953125 C 11.976562 -0.585938 10.210938 0.09375 8.109375 0.09375 C 6.015625 0.09375 4.253906 -0.585938 2.828125 -1.953125 C 1.398438 -3.328125 0.6875 -5.015625 0.6875 -7.015625 C 0.6875 -9.023438 1.398438 -10.707031 2.828125 -12.0625 Z M 8.140625 -11.96875 C 6.742188 -11.96875 5.550781 -11.488281 4.5625 -10.53125 C 3.582031 -9.570312 3.09375 -8.398438 3.09375 -7.015625 C 3.09375 -5.628906 3.585938 -4.453125 4.578125 -3.484375 C 5.578125 -2.515625 6.765625 -2.03125 8.140625 -2.03125 C 9.515625 -2.03125 10.6875 -2.515625 11.65625 -3.484375 C 12.632812 -4.453125 13.125 -5.628906 13.125 -7.015625 C 13.125 -8.398438 12.632812 -9.570312 11.65625 -10.53125 C 10.6875 -11.488281 9.515625 -11.96875 8.140625 -11.96875 Z M 8.140625 -11.96875 "/></g></g></g><g fill="#12229d" fill-opacity="1"><g transform="translate(323.79509, 350.912741)"><g><path d="M 1.84375 -14.03125 L 7.4375 -14.03125 C 9.195312 -14.03125 10.5625 -13.613281 11.53125 -12.78125 C 12.5 -11.945312 12.984375 -10.765625 12.984375 -9.234375 C 12.984375 -7.648438 12.5 -6.421875 11.53125 -5.546875 C 10.5625 -4.671875 9.195312 -4.234375 7.4375 -4.234375 L 4.203125 -4.234375 L 4.203125 0 L 1.84375 0 Z M 4.203125 -11.90625 L 4.203125 -6.359375 L 7.34375 -6.359375 C 9.59375 -6.359375 10.71875 -7.300781 10.71875 -9.1875 C 10.71875 -11 9.59375 -11.90625 7.34375 -11.90625 Z M 4.203125 -11.90625 "/></g></g></g></svg>